# xmcd
#
# Track frame offsets:
#	150
#	20874
#	44742
#	68399
#	92796
#	146987
#	172191
#
# Disc length: 2655 seconds
#
# Revision: 1
# Processed by: cddbd v1.5.1PL0 Copyright (c) Steve Scherf et al.
# Submitted via: audiograbber 1.83.01
#
DISCID=690a5d07
DTITLE=Kenny Wayne Shepard - 2000-07-03 - Milwaukee, Wis,LAZR 103 FM - Disc 1
DYEAR=1900
DGENRE=
TTITLE0=In To Deep
TTITLE1=Somehow Somewhere Someway
TTITLE2=True Lies
TTITLE3=Last Goodbye
TTITLE4=Shame Shame Shame
TTITLE5=Where Was I
TTITLE6=Big Boss Man
EXTD=
EXTT0=
EXTT1=
EXTT2=
EXTT3=
EXTT4=
EXTT5=
EXTT6=
PLAYORDER=
